<svg id="Слой_1" data-name="Слой 1" xmlns="http://www.w3.org/2000/svg" viewBox="0 0 145.15 145.15"><defs><style>.cls-1{stroke:#000;stroke-miterlimit:10;}.cls-2{fill:#fff;}</style></defs><rect class="cls-1" x="0.5" y="0.5" width="144.15" height="144.15" rx="22.98"/><path class="cls-2" d="M49,56V52H63v4.87H61.54ZM66,86l12.44.88v4H49v-4L61.54,86ZM54.87,70.49c0-6.18,0-12.36-.18-18.53H71.27C71,58,71,64.17,71,70.49v1.82c0,6.25,0,12.42.27,18.6H54.69c.18-6,.18-12.21.18-18.53ZM83.25,52l6.49,3.92H63V52H92.44l1,9.95H84.78ZM81.18,72.82H63V68.46h18.2ZM78.66,70l1.26-5.38h5.49V77.39H79.92l-1.26-5.74Z"/></svg>